<svg width="523" height="234" fill="none" xmlns="http://www.w3.org/2000/svg"><path d="M256.098 0l139.49 66.857-139.49 84.595L122 66.857 256.098 0z" fill="#010059"/><path d="M258.794 180.787l-73.756-49.369c-3.322-2.223-7.781.158-7.781 4.155v48.24a15 15 0 0 0 8.27 13.406l68.743 34.51a10 10 0 0 0 9.033-.031l67.5-34.455a15.001 15.001 0 0 0 8.18-13.36v-48.222c0-4.015-4.494-6.393-7.813-4.133l-72.376 49.259zM357.851 152.322v-68.41l12.804-8.186-2.619 71.13c-.597 16.231 17.379 26.368 30.959 17.457l4.005-2.628v27.289l-34.785-19.126a20.001 20.001 0 0 1-10.364-17.526zM1 92h103v112H1z" fill="#010059"/><path d="M103 83H86" stroke="#000"/><path d="M3.392 80.039A10 10 0 0 1 13.198 72H104v20H1l2.392-11.961z" fill="#EEE" stroke="#000"/><path d="M104 92v111.5H1V92" stroke="#000"/><path d="M57.016 128.391c.968 0 1.953.101 2.953.304 1 .188 1.89.446 2.672.774a85.72 85.72 0 0 1 3.75 7.359 78.59 78.59 0 0 1 3.046 7.688c.61.078 1.227.164 1.852.257.625.079 1.258.165 1.898.258v6l-2.015-.562a94.199 94.199 0 0 1 1.43 7.125c.39 2.422.68 4.89.867 7.406H67.89a68.014 68.014 0 0 0-1.172-7.969 98.748 98.748 0 0 0-1.875-7.547 119.192 119.192 0 0 0-4.336-.281 78.492 78.492 0 0 0-3.492-.094c-1.297 0-2.586.024-3.868.071-1.28.047-2.57.132-3.867.258a106.348 106.348 0 0 0-1.898 7.546A64.691 64.691 0 0 0 46.234 165h-5.578c.172-2.516.446-4.977.82-7.383.391-2.406.868-4.773 1.43-7.101l-1.828.515v-6l3.61-.515a78.343 78.343 0 0 1 3-7.688 86.214 86.214 0 0 1 3.796-7.359 13.272 13.272 0 0 1 2.649-.774 14.253 14.253 0 0 1 2.883-.304zm0 15.421c.937 0 1.906.016 2.906.047a54.1 54.1 0 0 1 3.094.141c-.797-2.172-1.586-4.055-2.368-5.648-.765-1.61-1.43-2.852-1.992-3.727a3.624 3.624 0 0 0-.797-.258 4.592 4.592 0 0 0-.843-.07c-.5 0-1.016.109-1.547.328-.563.875-1.235 2.117-2.016 3.727-.781 1.593-1.562 3.476-2.344 5.648a51.108 51.108 0 0 1 3.024-.141c1-.031 1.96-.047 2.883-.047z" fill="#EEE"/><path d="M104.008 80.375H79.994M104 84H73.5M104 88H88" stroke="#000"/><path fill="#010059" d="M419 92h103v112H419z"/><path d="M521 83h-17" stroke="#000"/><path d="M421.392 80.039A10 10 0 0 1 431.198 72H522v20H419l2.392-11.961z" fill="#EEE" stroke="#000"/><path d="M522 92v111.5H419V92" stroke="#000"/><path d="M473.891 129.328c2.406 0 4.953.086 7.64.258 2.703.172 5.531.508 8.485 1.008v5.953a46.067 46.067 0 0 1-2.719 3.703 90.845 90.845 0 0 1-3.422 3.938 118.566 118.566 0 0 1-8.25 8.039 129.61 129.61 0 0 1-4.523 3.773 91.966 91.966 0 0 1-4.524 3.375c1.36.141 2.891.234 4.594.281.453.032.906.047 1.359.047H475.32c.453 0 .93-.015 1.43-.047a62.704 62.704 0 0 0 4.641-.281 62.113 62.113 0 0 0 3.703-.516c.14-.781.265-1.632.375-2.554.109-.938.203-1.961.281-3.071h5.344a100.26 100.26 0 0 1-.375 5.133 69.933 69.933 0 0 1-.703 5.367c-2.954.5-5.774.836-8.461 1.008-2.688.172-5.196.258-7.524.258a121.3 121.3 0 0 1-7.687-.258 80.333 80.333 0 0 1-8.438-1.008v-5.953a74.743 74.743 0 0 0 6.844-4.453 95.585 95.585 0 0 0 6.773-5.437 101.755 101.755 0 0 0 6.375-6.118 92.544 92.544 0 0 0 5.743-6.585 81.217 81.217 0 0 0-1.571-.188 39.452 39.452 0 0 0-1.945-.164 51.67 51.67 0 0 0-2.625-.141 74.011 74.011 0 0 0-3.469-.07 97.93 97.93 0 0 0-4.008.07c-1.125.047-2.117.11-2.976.188s-1.633.172-2.32.281c-.672.094-1.336.195-1.993.305a58.96 58.96 0 0 0-.351 2.601c-.094.938-.18 1.946-.258 3.024h-5.344c.094-1.656.219-3.352.375-5.086.172-1.75.422-3.555.75-5.414 2.922-.5 5.727-.836 8.414-1.008 2.688-.172 5.211-.258 7.571-.258z" fill="#EEE"/><path d="M522.008 80.375h-24.014M522 84h-30.5M522 88h-16" stroke="#000"/></svg>